# xmcd
#
# Track frame offsets: 
#        150
#        17670
#        34070
#        52528
#        72037
#        87249
#        101188
#        119157
#        136562
#        150253
#        168028
#        187429
#
# Disc length: 2696 seconds
#
# Revision: 0
# Processed by: cddbd v1.5.2PL0 Copyright (c) Steve Scherf et al.
# Submitted via: ExactAudioCopy v0.90b4
#
DISCID=910a860c
DTITLE=The Bobkatz - Sweet Water
DYEAR=2006
DGENRE=Country
TTITLE0=Welcome to Queensland
TTITLE1=Nariel Creek
TTITLE2=Little River Town (Howlong NSW)
TTITLE3=The Man in the Picture
TTITLE4=The Start of the End
TTITLE5=Fraser Moon
TTITLE6=Sweet Water
TTITLE7=The Boy from the City
TTITLE8=The Old Place
TTITLE9=See the Whales Rise
TTITLE10=The Last Cowboy Song
TTITLE11=Too Sensitive
EXTD=
EXTT0=
EXTT1=
EXTT2=
EXTT3=
EXTT4=
EXTT5=
EXTT6=
EXTT7=
EXTT8=
EXTT9=
EXTT10=
EXTT11=
PLAYORDER=
